<svg width="48" height="48" viewBox="0 0 48 48" fill="none" xmlns="http://www.w3.org/2000/svg">
<rect width="48" height="48" fill="#020202"/>
<path d="M36.416 10.3916C36.416 10.0106 36.2084 9.65989 35.8743 9.4767L29.8579 6.17739C29.1626 5.79607 28.3128 6.29922 28.3128 7.09226V15.5687C28.3128 15.9451 28.5155 16.2923 28.8433 16.4774L34.8597 19.8737C35.5552 20.2663 36.416 19.7638 36.416 18.9651V10.3916Z" fill="#D3F002"/>
<path fill-rule="evenodd" clip-rule="evenodd" d="M19.6872 7.09371C19.6872 6.30067 18.8374 5.79752 18.1421 6.17884L12.1257 9.47815C11.7916 9.66134 11.584 10.012 11.584 10.393V37.7404C11.584 37.7421 11.5859 37.7432 11.5874 37.7424L11.5882 37.7419C11.59 37.7409 11.592 37.7429 11.5909 37.7447V37.7447C11.5903 37.7457 11.5906 37.7469 11.5916 37.7475L19.6796 42.5272C20.0067 42.7204 20.4129 42.7207 20.7402 42.5279L26.5366 39.1126C27.2163 38.7121 27.2228 37.7313 26.5486 37.3218L20.1889 33.459C19.8774 33.2697 19.6872 32.9317 19.6872 32.5672V7.09371Z" fill="#D3F002"/>
<path fill-rule="evenodd" clip-rule="evenodd" d="M27.8126 33.4491C28.1242 33.2599 28.3144 32.9218 28.3144 32.5573V31.5401C28.3144 31.1637 28.1117 30.8165 27.7839 30.6315L24.0086 28.5003C23.6809 28.3153 23.4782 27.968 23.4782 27.5917V19.1152C23.4782 18.3222 24.3279 17.819 25.0233 18.2003L28.2971 19.9957C28.3049 19.9999 28.3144 19.9943 28.3144 19.9855V19.9855C28.3144 19.9767 28.3238 19.971 28.3316 19.9753L35.8758 24.1125C36.2099 24.2957 36.4175 24.6464 36.4175 25.0273V37.7286C36.4175 37.734 36.4118 37.7373 36.4071 37.7347L36.4026 37.7322C36.3975 37.7293 36.392 37.7351 36.395 37.74V37.74C36.3966 37.7427 36.3958 37.7463 36.393 37.7479L28.3082 42.5257C27.9812 42.7189 27.5749 42.7192 27.2477 42.5264L21.4512 39.111C20.7716 38.7106 20.765 37.7298 21.4392 37.3203L27.8126 33.4491Z" fill="#D3F002"/>
</svg>
