<svg width="26" height="25" viewBox="0 0 26 25" fill="none" xmlns="http://www.w3.org/2000/svg">
<g clip-path="url(#clip0_3209_2514)">
<path fill-rule="evenodd" clip-rule="evenodd" d="M0.256313 8.16514C0.0923376 8.32657 0 8.54704 0 8.77714V16.109C0 16.5833 0.384499 16.9678 0.858803 16.9678H7.69126C8.16557 16.9678 8.55007 17.3523 8.55007 17.8266V23.995C8.55007 24.4693 8.93456 24.8538 9.40887 24.8538H17.0311C17.0329 24.8538 17.0343 24.8553 17.0343 24.8571C17.0343 24.86 17.0378 24.8614 17.0398 24.8594L17.0439 24.8555C17.0449 24.8544 17.0463 24.8538 17.0478 24.8538H17.0623C17.0834 24.8538 17.1004 24.8368 17.1004 24.8157C17.1004 24.8055 17.1045 24.7957 17.1118 24.7885L25.3284 16.6997C25.4924 16.5383 25.5847 16.3178 25.5847 16.0877V11.4693C25.5847 10.995 25.2002 10.6105 24.7259 10.6105H17.8931C17.8455 10.6105 17.7988 10.6144 17.7533 10.6219C17.7091 10.6148 17.6638 10.6112 17.6176 10.6112H14.9996C14.5253 10.6112 14.1408 10.9957 14.1408 11.47V12.6529H17.0343V15.4447C17.0343 15.919 16.6498 16.3035 16.1755 16.3035H9.40918C8.93488 16.3035 8.55038 15.919 8.55038 15.4447V9.40918C8.55038 8.93488 8.93488 8.55038 9.40918 8.55038H16.2416C16.7159 8.55038 17.1004 8.16588 17.1004 7.69157V0.858803C17.1004 0.384499 16.7159 0 16.2416 0H8.55038H8.55028C8.55016 0 8.55007 9.7676e-05 8.55007 0.000218165C8.55007 0.000276619 8.55004 0.000332627 8.55 0.000373635L0.256313 8.16514Z" fill="#DFFE00"/>
</g>
<defs>
<clipPath id="clip0_3209_2514">
<rect width="26" height="25" fill="white"/>
</clipPath>
</defs>
</svg>
