<svg width="90" height="26" viewBox="0 0 90 26" fill="none" xmlns="http://www.w3.org/2000/svg">
<g clip-path="url(#clip0_3209_2518)">
<path fill-rule="evenodd" clip-rule="evenodd" d="M40.027 9.80822V17.382H33.3482C32.9607 17.382 32.6461 17.0674 32.6461 16.6798V9.95413C32.6461 9.48904 33.029 9.10602 33.494 9.10602H40.027V9.80822ZM40.027 19.0782V21.732C40.027 22.1971 39.6486 22.5801 39.179 22.5801H28.3379V25.9999H39.3204C39.7079 25.9999 40.0224 25.6853 40.0224 25.2977V23.4237C40.0224 22.9586 40.4008 22.5755 40.8704 22.5755H43.6286C44.0161 22.5755 44.3306 22.2609 44.3306 21.8733V5.68164H33.3482C32.9607 5.68164 32.6461 5.99626 32.6461 6.38384V8.2579C32.6461 8.723 32.2677 9.10602 31.7981 9.10602H29.04C28.6525 9.10602 28.3379 9.42064 28.3379 9.80822V17.5826C28.3379 19.3564 29.7876 20.8064 31.5611 20.8064H36.3115C36.5029 20.8064 36.6716 20.738 36.8084 20.6012L38.828 18.5812C39.0332 18.376 39.3249 18.3167 39.5939 18.4307C39.8629 18.5402 40.027 18.7909 40.027 19.0782Z" fill="white"/>
<path fill-rule="evenodd" clip-rule="evenodd" d="M50.3575 12.7426V9.45388C50.3575 8.98927 50.7364 8.60665 51.2067 8.60665H57.7492V16.0267C57.7492 16.4913 57.3702 16.8739 56.9 16.8739H50.3575V12.7426ZM62.0591 13.936V5.19043H51.0606C50.6725 5.19043 50.3575 5.50472 50.3575 5.89189V7.76399C50.3575 8.22859 49.974 8.61121 49.5083 8.61121H46.7461C46.358 8.61121 46.043 8.9255 46.043 9.31267V20.2947H57.0415C57.4296 20.2947 57.7446 19.9804 57.7446 19.5932V17.7211C57.7446 17.2565 58.1281 16.8739 58.5938 16.8739H61.356C61.7441 16.8739 62.0591 16.5596 62.0591 16.1725V13.9314V13.936Z" fill="white"/>
<path fill-rule="evenodd" clip-rule="evenodd" d="M68.0728 0H63.7695V17.0938C63.7695 18.8679 65.2191 20.3183 66.9924 20.3183H71.7425V16.8977H68.7749C68.3874 16.8977 68.0728 16.583 68.0728 16.1953V9.46818C68.0728 9.00298 68.4512 8.61988 68.9207 8.61988H71.7425V5.19929H68.0728V0Z" fill="white"/>
<path fill-rule="evenodd" clip-rule="evenodd" d="M84.4353 11.0361H78.4598C78.0723 11.0361 77.7578 10.7215 77.7578 10.334V5.1875H73.4551V11.2321C73.4551 12.9278 74.786 14.3319 76.4543 14.4458L73.4551 17.4453V20.2989H77.7578V15.1524C77.7578 14.7649 78.0723 14.4504 78.4598 14.4504H84.4353C84.8228 14.4504 85.1373 14.7649 85.1373 15.1524V20.2989H89.44V14.2544C89.44 12.5586 88.1091 11.1546 86.4408 11.0406L89.44 8.04112V5.1875H85.1373V10.334C85.1373 10.7215 84.8228 11.0361 84.4353 11.0361Z" fill="white"/>
<path fill-rule="evenodd" clip-rule="evenodd" d="M81.446 11.0361H76.6738V14.455H81.446V11.0361Z" fill="white"/>
<path fill-rule="evenodd" clip-rule="evenodd" d="M0.243561 9.41712C0.0877437 9.57051 0 9.78002 0 9.99867V16.9658C0 17.4165 0.36537 17.7819 0.816076 17.7819H7.30861C7.75932 17.7819 8.12469 18.1472 8.12469 18.598V24.4595C8.12469 24.9102 8.49006 25.2755 8.94077 25.2755H16.1837C16.1855 25.2755 16.1868 25.2769 16.1868 25.2786C16.1868 25.2814 16.1901 25.2828 16.1921 25.2808L16.1959 25.2771C16.1969 25.2761 16.1982 25.2755 16.1996 25.2755H16.2134C16.2335 25.2755 16.2497 25.2593 16.2497 25.2393C16.2497 25.2296 16.2536 25.2203 16.2605 25.2135L24.0683 17.5271C24.2241 17.3737 24.3118 17.1642 24.3118 16.9455V12.5569C24.3118 12.1062 23.9465 11.7409 23.4957 11.7409H17.0029C16.9577 11.7409 16.9133 11.7445 16.8701 11.7516C16.8281 11.7449 16.785 11.7415 16.7411 11.7415H14.2534C13.8027 11.7415 13.4373 12.1068 13.4373 12.5575V13.6816H16.1868V16.3345C16.1868 16.7852 15.8215 17.1506 15.3708 17.1506H8.94107C8.49036 17.1506 8.12499 16.7852 8.12499 16.3345V10.5993C8.12499 10.1486 8.49036 9.78319 8.94107 9.78319H15.4336C15.8843 9.78319 16.2497 9.41782 16.2497 8.96711V2.47428C16.2497 2.02357 15.8843 1.6582 15.4336 1.6582H8.12499H8.1249C8.12478 1.6582 8.12469 1.6583 8.12469 1.65841C8.12469 1.65847 8.12467 1.65852 8.12463 1.65856L0.243561 9.41712Z" fill="#DFFE00"/>
</g>
<defs>
<clipPath id="clip0_3209_2518">
<rect width="90" height="26" fill="white"/>
</clipPath>
</defs>
</svg>
